<?xml version="1.0" encoding="UTF-8"?>
<svg width="961px" height="808px" viewBox="0 0 961 808" version="1.1" xmlns="http://www.w3.org/2000/svg" xmlns:xlink="http://www.w3.org/1999/xlink">
    <!-- Generator: Sketch 41.2 (35397) - http://www.bohemiancoding.com/sketch -->
    <title>Artboard Copy 4</title>
    <desc>Created with Sketch.</desc>
    <defs>
        <radialGradient cx="23.9078611%" cy="91.7549584%" fx="23.9078611%" fy="91.7549584%" r="159.696356%" id="radialGradient-1">
            <stop stop-color="#292454" offset="0%"></stop>
            <stop stop-color="#344EAB" offset="18.2360716%"></stop>
            <stop stop-color="#EC70D6" offset="46.472425%"></stop>
            <stop stop-color="#FFD17F" offset="66.6199041%"></stop>
            <stop stop-color="#B4ED50" offset="100%"></stop>
        </radialGradient>
        <linearGradient x1="26.219447%" y1="-8.68290777%" x2="95.0474618%" y2="131.804498%" id="linearGradient-2">
            <stop stop-color="#3023AE" offset="0%"></stop>
            <stop stop-color="#53A0FE" offset="47.5247532%"></stop>
            <stop stop-color="#B4ED50" offset="100%"></stop>
        </linearGradient>
        <linearGradient x1="9.57208545%" y1="0%" x2="77.8635495%" y2="92.2847763%" id="linearGradient-3">
            <stop stop-color="#3023AE" offset="0%"></stop>
            <stop stop-color="#53A0FE" offset="47.5247532%"></stop>
            <stop stop-color="#B4ED50" offset="100%"></stop>
        </linearGradient>
        <linearGradient x1="16.3275789%" y1="-9.11299357%" x2="56.3054336%" y2="82.7255906%" id="linearGradient-4">
            <stop stop-color="#3023AE" offset="0%"></stop>
            <stop stop-color="#53A0FE" offset="47.5247532%"></stop>
            <stop stop-color="#B4ED50" offset="100%"></stop>
        </linearGradient>
        <path d="M85.4226561,46 L84.9164062,47 L66.9476562,47 L63.2983863,43.9605437 L61.5570312,47 L43.5882812,47 L40.5882812,44 L51,24.8359375 L47.5511718,22.4375 L50.445703,13.5312501 L41.8125,20.046875 L33.0976562,47 L15.1289062,47 L12.1289062,44 L15.2075893,34.421875 L4.796875,34.421875 L1.796875,31.421875 L3.54882812,26.03125 L34.5,2.671875 L52.46875,2.671875 L55.2757812,6.265625 L61.7914062,6.265625 L63.8578124,2.671875 L82.1859374,2.671875 C82.1859374,2.671875 91,3.5 93.4050248,13.1819489 L96.8093748,2.671875 L114.778125,2.671875 L117.585156,6.265625 L136.969531,6.265625 L139.969531,9.265625 L143.092968,2.671875 L180.827343,2.671875 L183.827343,5.671875 L213.7125,6.265625 C216.169495,6.98900005 217.941502,8.08089491 219.126158,9.49618003 C219.265916,9.61394376 221.864843,2.671875 221.864843,2.671875 L241.630468,2.671875 L244.630468,5.671875 L238.20664,25.4375 L222.668201,25.4375 C222.096488,27.1398787 211.68125,47 211.68125,47 L190.915625,47 L187.915625,44 L196.517187,27.828125 C197.201666,26.9154869 197.741246,26.1186122 198.106241,25.4375 L180.70664,25.4375 C180.70664,25.4375 179.093111,25.7913766 178.616406,27.234375 L176.864453,32.625 C173.779802,42.2083813 166.247976,47 154.26875,47 L130.909375,47 L127.909375,44 L133.897265,25.4375 L131.119922,25.4375 L129.367969,30.828125 C125.893993,41.6094289 118.167508,47 106.188281,47 L86.4226561,47 L85.4226561,46 Z M109.602344,30.828125 L111.354297,25.4375 L113.151172,25.4375 L111.983203,29.03125 C111.593878,30.2291727 110.800266,30.828125 109.602344,30.828125 Z" id="path-5"></path>
        <mask id="mask-6" maskContentUnits="userSpaceOnUse" maskUnits="objectBoundingBox" x="-3" y="-3" width="248.833593" height="50.328125">
            <rect x="-1.203125" y="-0.328125" width="248.833593" height="50.328125" fill="white"></rect>
            <use xlink:href="#path-5" fill="black"></use>
        </mask>
        <path d="M138.589062,11.453125 L142.092968,0.671875 L179.827343,0.671875 L175.155468,15.046875 C175.90417,16.4843822 175.724484,18.8801916 174.616406,22.234375 L172.864453,27.625 C169.779802,37.2083812 162.247976,42 150.26875,42 L126.909375,42 L131.536328,27.625 L154.895703,27.625 C156.093625,27.625 156.789908,27.3255238 156.98457,26.7265625 C157.179232,26.1276012 156.67761,25.828125 155.479687,25.828125 L132.120312,25.828125 L136.792187,11.453125 L138.589062,11.453125 Z" id="path-7"></path>
        <mask id="mask-8" maskContentUnits="userSpaceOnUse" maskUnits="objectBoundingBox" x="-3" y="-3" width="58.9179688" height="47.328125">
            <rect x="123.909375" y="-2.328125" width="58.9179688" height="47.328125" fill="white"></rect>
            <use xlink:href="#path-7" fill="black"></use>
        </mask>
        <path d="M218.492784,7.97051905 C217.319717,6.32334328 215.437347,5.06785973 212.7125,4.265625 L181.9625,4.265625 L176.70664,20.4375 L194.67539,20.4375 C198.688431,20.3177077 198.302357,22.1145648 195.517187,25.828125 L186.915625,42 L207.68125,42 L216.485937,25.828125 C217.359763,23.9410543 218.096488,22.1398787 218.668201,20.4375 L234.20664,20.4375 L240.630468,0.671875 L220.864843,0.671875 L218.492784,7.97051905 Z" id="path-9"></path>
        <mask id="mask-10" maskContentUnits="userSpaceOnUse" maskUnits="objectBoundingBox" x="-3" y="-3" width="69.9238281" height="47.328125">
            <rect x="173.70664" y="-2.328125" width="69.9238281" height="47.328125" fill="white"></rect>
            <use xlink:href="#path-9" fill="black"></use>
        </mask>
        <polygon id="path-11" points="2.54882813 24.03125 0.796875 29.421875 15.171875 29.421875 11.1289063 42 29.0976563 42 37.8125 15.046875 49.7167969 6.0625 51.46875 0.671875 33.5 0.671875"></polygon>
        <mask id="mask-12" maskContentUnits="userSpaceOnUse" maskUnits="objectBoundingBox" x="-3" y="-3" width="56.671875" height="47.328125">
            <rect x="-2.203125" y="-2.328125" width="56.671875" height="47.328125" fill="white"></rect>
            <use xlink:href="#path-11" fill="black"></use>
        </mask>
        <path d="M51.8070312,4.265625 L46.5511718,20.4375 L51.7621093,20.4375 L39.5882812,42 L57.5570312,42 L69.9105468,20.4375 L62.9476562,42 L80.9164062,42 L89.0472655,16.84375 C91.7725396,8.45829141 88.9424897,4.265625 80.5570312,4.265625 L79.1195312,4.265625 L81.1859374,0.671875 L62.8578124,0.671875 L60.7914062,4.265625 L51.8070312,4.265625 Z" id="path-13"></path>
        <mask id="mask-14" maskContentUnits="userSpaceOnUse" maskUnits="objectBoundingBox" x="-3" y="-3" width="56.461686" height="47.328125">
            <rect x="36.5882812" y="-2.328125" width="56.461686" height="47.328125" fill="white"></rect>
            <use xlink:href="#path-13" fill="black"></use>
        </mask>
        <path d="M95.8093748,0.671875 L82.4226561,42 L102.188281,42 C114.167508,42 121.893993,36.6094289 125.367969,25.828125 L127.119922,20.4375 L130.713672,20.4375 L135.969531,4.265625 L112.610156,4.265625 L113.778125,0.671875 L95.8093748,0.671875 Z M105.602344,25.828125 L107.354297,20.4375 L109.151172,20.4375 L107.983203,24.03125 C107.593878,25.2291727 106.800266,25.828125 105.602344,25.828125 Z" id="path-15"></path>
        <mask id="mask-16" maskContentUnits="userSpaceOnUse" maskUnits="objectBoundingBox" x="-3" y="-3" width="59.546875" height="47.328125">
            <rect x="79.4226561" y="-2.328125" width="59.546875" height="47.328125" fill="white"></rect>
            <use xlink:href="#path-15" fill="black"></use>
        </mask>
    </defs>
    <g id="Page-1" stroke="none" stroke-width="1" fill="none" fill-rule="evenodd">
        <g id="Artboard-Copy-4">
            <g id="Group-2" transform="translate(67.000000, 93.000000)">
                <path d="M732.665262,161.909744 C729.279898,148.708448 720.722081,137.198651 708.623082,130.207954 L495.173038,6.87836616 C479.300258,-2.29278872 459.744187,-2.29278872 443.871407,6.87836616 L230.421363,130.207954 C214.548583,139.379109 204.770548,156.328102 204.770548,174.670412 L204.770548,206.098792 C204.733024,206.110834 204.695467,206.123079 204.657875,206.135527 C203.770422,206.429413 202.956582,206.79603 202.067799,207.261625 C180.411782,217.23443 161.604372,229.079186 138.905556,246.207965 C122.285813,258.750072 111.226284,269.550061 102.65616,283.09389 C89.584917,303.749248 86.9567342,327.354429 94.4019183,351.823721 C94.5974341,352.466301 99.3468365,359.685687 100.321798,359.240804 C103.547815,357.768746 87.6344588,363.647029 78.9110724,365.145178 C45.7456605,370.840988 25.4009009,353.221608 28.5158741,314.151937 C28.5762593,313.395766 28.5930727,313.175967 28.612011,312.88936 C28.6564562,312.185375 28.6734762,311.875384 28.6861942,311.49539 C28.8331629,307.104205 27.8206816,303.648821 23.7858868,301.353629 C20.7961549,299.65188 17.461608,299.659735 14.6002869,301.201163 C12.9058678,302.113966 11.7442675,303.2604 10.4590573,304.891383 C3.43203214,314.107739 0.335579235,324.154081 0.0204405094,335.763082 C-0.692001366,362.230095 17.2888995,388.591009 43.0667649,398.106462 C45.7736008,399.105727 48.4732947,399.995675 51.1654217,400.776514 C49.3120472,401.555262 47.6004649,402.888553 46.159154,404.799266 C43.0338189,408.94254 43.0045514,413.566811 44.9792222,418.25499 C45.5929714,419.712127 46.2466159,420.910758 47.4292145,422.89638 C48.5138846,424.717577 48.725824,425.085438 49.0314977,425.709016 C49.8414863,427.364145 50.7163488,428.59054 52.215526,430.418615 C69.8513679,451.859017 92.3978938,461.228833 117.90621,457.773039 C160.017547,452.064225 187.366012,430.116847 203.539431,388.884264 C204.242003,393.76349 204.647473,398.446592 204.770548,402.945998 L204.770548,408.768816 C204.190095,429.398042 197.376552,446.001021 185.908984,459.911823 C180.7355,466.18755 166.620701,478.855646 165.682333,480.249665 C165.447171,480.599121 165.269396,480.82035 164.243002,482.05267 C162.24445,484.45219 161.227979,485.932821 160.469041,488.157801 C159.235302,491.774753 159.800252,495.5517 162.228371,498.875127 C165.839083,503.819935 170.784019,504.189013 176.139659,502.189869 C176.730339,501.969381 177.261544,501.750107 178.04658,501.411981 C179.293326,500.874991 179.48108,500.796634 179.835572,500.671915 C198.124652,494.234079 213.878844,479.851477 224.695835,461.949695 C226.501772,463.346402 228.41277,464.631498 230.421363,465.792046 L443.871407,589.121634 C459.744187,598.292789 479.300258,598.292789 495.173038,589.121634 L674.088502,485.745827 L715.117644,461.343092 C723.783941,454.371849 729.92236,444.786256 732.665262,434.090256 L732.665262,161.909744 L732.665262,161.909744 L732.665262,161.909744 Z M574.688016,444.727585 L480.259639,499.287484 C473.615302,503.126524 465.429143,503.126524 458.784806,499.287484 L300.703929,407.949721 C294.059593,404.110681 289.966513,397.015843 289.966513,389.337763 L289.966513,274.776271 C295.062459,272.118689 300.374579,270.281521 305.970383,269.257131 C332.697162,264.364506 350.93435,267.383958 366.028496,281.775075 C369.021667,284.62867 372.205456,286.333384 375.400535,286.866167 C374.026777,291.251759 375.625016,295.731553 380.098347,300.347496 C387.270185,307.744016 393.527326,312.608522 407.885181,322.712342 C408.715436,323.296604 409.367679,323.755838 409.923646,324.147838 C409.923646,324.147838 410.257084,328.923964 410.244145,330.524858 C410.11491,344.987044 410.647038,359.998045 412.575928,375.28528 C414.639546,391.640286 418.008968,404.730069 423.185848,413.679175 C437.403568,438.258958 466.662148,455.025262 494.305974,454.819294 C510.226111,454.699475 526.428756,451.821018 544.695621,446.367842 C555.739179,443.070806 565.640677,442.47408 574.688016,444.727585 L574.688016,444.727585 L574.688016,444.727585 Z M649.077932,279.461907 L649.077932,206.662237 C649.077932,198.984157 644.984852,191.889319 638.340516,188.050279 L480.259639,96.7125163 C473.615302,92.8734764 465.429143,92.8734764 458.784806,96.7125163 L372.516134,146.557809 C382.759862,153.723133 389.138248,162.114991 389.138248,162.114991 C395.792402,163.90785 402.088008,166.396368 408.149919,169.704406 C410.873194,171.190131 412.665875,172.181394 414.011559,172.979696 L419.398572,174.667931 C491.921944,197.396008 560.947182,232.733865 637.717932,283.997665 L639.203478,284.989642 C642.581702,282.964799 645.806511,281.160787 649.077932,279.461907 L649.077932,279.461907 L649.077932,279.461907 Z M123.737449,344.689881 L123.661079,344.482858 C121.803412,339.447107 121.514484,338.373554 121.580163,337.178601 C121.544748,313.998774 131.032746,297.183211 147.189639,284.862634 C152.110782,281.109974 157.381943,278.000192 162.876652,275.4003 C164.922676,274.432197 166.897157,273.582831 168.907414,272.784426 C170.0782,272.319431 173.096678,271.180158 172.853092,271.274417 L171.655612,271.613861 C172.422959,271.47167 173.175742,271.257506 173.912941,270.976782 C173.921058,270.973691 173.929171,270.970594 173.937282,270.967489 C169.460925,279.416426 166.086455,286.88046 164.278744,292.448518 C155.651492,313.388416 140.936309,331.599311 123.737449,344.689881 L123.737449,344.689881 L123.737449,344.689881 Z M117.803598,397.269698 L119.947535,400.013495 C120.634841,400.893104 121.434095,401.76971 122.360782,402.667632 C127.317188,407.476156 129.629945,409.550892 132.031695,411.099281 C132.579933,411.452726 133.13658,411.766926 133.697351,412.038946 C111.183024,426.094013 82.7188333,424.441859 68.4621062,407.645928 C67.2089993,406.168935 65.9574815,404.871631 64.645965,403.77387 C82.7927869,406.61242 100.556564,404.422579 117.803598,397.269698 L117.803598,397.269698 L117.803598,397.269698 Z M148.697492,396.879566 C154.676658,390.288346 160.347542,382.166348 165.656633,372.848997 C171.181381,363.153174 176.01047,352.721516 180.098078,342.285224 C180.788949,340.521326 181.43403,338.819078 182.032871,337.188627 C179.387804,340.762259 176.842725,344.138724 174.377672,347.338566 C161.186603,364.461672 150.655056,376.10151 142.444976,381.75315 C142.260612,381.880062 142.076177,382.006395 141.891672,382.132151 C141.891672,382.132151 148.220074,393.565051 148.697492,396.879566 L148.697492,396.879566 Z" id="Combined-Shape" fill="#FFFFFF"></path>
                <path d="M723.539815,285.15732 C707.613754,271.643814 685.91024,270.01626 660.951949,281.494303 C634.85291,293.49665 612.560177,312.46651 588.525935,328.254375 C586.168527,329.801928 585.380364,331.246155 587.407405,333.587446 C601.983695,341.877073 618.872558,349.741651 633.451207,358.031278 C649.643938,367.236757 663.524097,376.869632 679.712108,386.086852 C679.650754,386.147908 679.233075,386.011705 678.510986,385.70877 C678.501547,385.704073 676.993655,384.870413 676.984216,384.865717 C669.855355,381.970218 650.892256,371.985092 631.374611,361.384703 C615.505168,352.766309 598.826325,343.497425 591.419011,339.24224 C589.90876,338.373356 581.397075,332.58001 572.88303,339.230498 C543.260857,362.363959 514.733616,345.242239 505.856167,307.795669 C503.996669,299.952226 491.85802,260.641077 491.053339,257.832467 C479.816122,218.664567 418.296868,224.558081 417.25621,225.351818 C416.213193,226.145556 401.786298,274.704581 390.782698,281.982075 C381.48993,288.130019 382.237977,291.373072 386.801769,296.076789 C396.207806,305.766025 405.778387,312.642635 416.54601,320.284121 C416.54601,320.284121 503.27694,370.104075 563.500591,394.045363 C625.849526,418.830668 684.716665,427.108292 722.715674,428.815445 C723.251675,426.45971 723.539815,424.123478 723.539815,421.876744 L723.539815,285.15732 L723.539815,285.15732 Z M720.246645,436.236547 C706.557732,435.942096 680.527505,431.937071 670.498391,430.179213 C620.952738,423.524028 539.292816,395.4755 417.441981,328.62776 C417.51468,329.653983 415.859016,386.798398 429.484246,410.32403 C442.682662,433.114634 469.912017,448.308369 494.840795,448.122851 C511.397443,447.998389 527.555419,444.682538 543.424943,439.95064 C568.452216,432.487628 589.614708,437.513067 607.613614,458.338113 C617.87934,470.216927 628.323907,482.011913 639.948093,492.41548 L704.191483,455.367549 C710.877291,451.511972 716.771066,444.192975 720.246645,436.236547 L720.246645,436.236547 Z M105.201642,355.923562 C109.762802,353.811238 113.735144,352.34853 117.944649,348.090298 C116.12717,343.163488 114.738374,339.584627 114.890808,336.811242 C114.785277,283.919665 163.103581,267.866207 170.434471,265.029417 C180.72492,263.122568 190.694086,232.075214 209.405913,218.405549 C209.821002,217.759756 210.233745,217.113964 210.648834,216.468171 C210.740294,209.317487 205.536441,213.260344 203.866706,214.018857 C181.932664,223.996937 162.712787,236.774466 143.102774,251.554895 C130.005199,261.4273 117.592403,272.22495 108.436998,286.676612 C96.3407953,305.768585 93.908891,326.469169 100.742612,348.090301 L105.201642,355.923562 L105.201642,355.923562 Z M138.655617,391.232319 C138.076369,390.253062 137.541678,389.320773 136.983536,388.503552 C133.252427,391.422534 129.465035,394.210009 125.227378,395.891418 C125.70813,396.506682 126.299104,397.157171 127.02375,397.859324 C134.324154,404.941906 138.386943,408.603874 140.145794,405.276281 C142.099291,404.494285 144.098673,400.444842 138.655617,391.232319 L138.655617,391.232319 Z M193.420461,357.296108 C191.065946,343.215484 191.446334,330.037978 191.446334,330.037978 C191.446334,330.037978 177.409275,378.160043 151.676116,405.809354 C124.965036,434.508371 82.5134143,434.550641 63.3536669,411.978433 C60.5324703,408.653189 55.3872455,403.766301 51.5599863,408.834011 C48.220515,413.255928 52.9483058,418.368256 55.1034843,422.759645 C55.778883,424.138118 56.7614943,425.328725 57.7136188,426.484106 C73.6511517,445.836745 93.943599,454.276666 117.146358,451.13694 C158.336297,445.559642 184.241642,423.896695 199.379484,381.537405 L193.420461,357.296108 L193.420461,357.296108 Z M405.425914,175.584103 C399.60961,172.413849 393.755569,170.16884 387.856715,168.581364 C380.320994,155.038509 365.138696,145.144969 346.479825,143.30857 C326.068515,141.298394 307.794096,149.644381 297.961099,163.485475 C237.750802,166.674515 178.686783,269.764129 170.651039,294.515593 C135.177721,380.73241 14.3467296,407.876829 21.8706582,313.619308 C21.90132,313.229484 21.9343403,312.839661 21.9602849,312.447489 C22.0852906,310.465493 22.2551097,308.171168 20.5026712,307.175474 C18.0945423,305.806394 16.4388063,308.103066 15.1557288,309.786824 C9.37008718,317.37195 6.9784685,326.312066 6.71666409,335.944941 C6.09163554,359.13711 21.9390575,383.16059 45.4354138,391.823602 C78.0689799,403.856477 109.138795,398.974286 138.550516,377.970767 C161.464299,361.60756 206.817785,286.72851 212.079818,282.708158 C205.26111,295.612266 193.923328,325.562946 205.303565,364.761375 C229.448536,447.920659 176.9084,475.868209 171.434094,483.991104 C169.266542,487.208324 164.603593,490.514782 167.827797,494.922609 C170.370366,498.400495 174.578105,495.495603 177.825895,494.354312 C214.174253,481.574666 240.491493,433.523009 232.212813,392.866264 C212.108121,294.121072 244.354877,265.877632 248.029573,258.435755 C248.024856,256.730862 250.723093,261.826752 248.126276,265.811879 C243.543519,274.244754 238.691883,282.543775 236.724812,292.277628 C225.408257,331.229482 260.070218,382.843564 262.466554,387.467439 C271.285353,402.553151 256.673836,434.305005 255.187919,442.32927 C254.725634,444.830248 254.055792,448.157841 256.770539,449.731226 C259.709352,451.43377 261.520756,448.470169 262.961859,446.523399 C282.93447,419.595027 289.437125,394.291704 275.297328,366.776248 C268.877224,354.285447 263.077431,341.315586 258.072485,328.068621 C251.164151,309.79152 254.522795,296.502285 268.162569,283.027532 C278.780978,272.539862 290.819264,265.285851 305.126521,262.669805 C328.976667,258.308944 352.015455,258.769218 371.082364,276.926554 C379.629924,285.065888 385.288202,277.17313 390.578538,268.813053 C404.258408,247.194269 412.360193,217.041631 416.383962,197.808757 C418.919455,182.798192 417.966581,182.417762 405.425914,175.584103 Z M512.811794,314.897273 C519.680692,338.657739 536.230305,343.605684 558.769391,338.397074 C570.218337,335.752847 580.457193,327.2096 585.102904,324.152066 C602.177827,314.263222 617.207793,300.638175 634.754088,289.568118 C566.039307,243.737988 502.736893,209.53076 424.796354,185.133895 C426.64786,198.738603 422.385471,212.204343 418.333529,221.042171 C423.621807,219.229256 490.162486,206.150518 500.689794,266.037789 C502.694884,277.448355 511.135023,309.094534 512.811794,314.897273 L512.811794,314.897273 Z M540.275427,411.25632 C537.430779,411.061408 534.424317,409.783913 534.332857,406.07589 C534.2156,401.360431 538.024098,401.306419 540.477109,400.327163 C544.238704,401.186654 547.775167,402.421879 547.540653,406.482152 C547.296759,410.725596 543.483571,411.477063 540.275427,411.25632 L540.275427,411.25632 Z M507.488104,424.571386 C504.230713,423.686063 501.001463,422.605829 501.383719,418.097023 C501.712038,414.23401 504.582483,413.207787 507.605361,413.376867 C511.055053,413.571779 514.113109,415.161603 513.754303,419.482542 C513.451781,423.103676 510.382,424.064146 507.488104,424.571386 L507.488104,424.571386 Z M476.154764,398.753777 C472.533877,397.565519 468.959892,396.389003 469.257724,392.145559 C469.62591,386.908769 473.736931,386.770218 477.362509,387.070805 C480.704325,387.347908 484.175124,388.65828 483.828044,393.012095 C483.424681,398.077457 479.168262,398.03049 476.154764,398.753777 L476.154764,398.753777 Z M474.452197,427.92481 C471.645071,428.007002 468.099228,428.244184 467.381617,424.526768 C466.65697,420.767081 469.961265,420.400741 472.379098,420.309156 C475.265958,420.198784 478.134058,420.680193 479.165917,424.348294 C478.854014,427.647707 476.534676,427.863754 474.452197,427.92481 L474.452197,427.92481 Z M524.729766,286.062052 C525.076846,284.119978 526.990476,283.394342 528.875964,283.460095 C531.207027,283.539939 532.717294,284.791602 533.439595,287.198647 C532.435878,289.53759 530.693443,290.613128 528.446804,290.223304 C526.369015,289.859312 524.241978,288.800212 524.729766,286.062052 L524.729766,286.062052 Z M543.866062,267.519589 C544.316328,263.921938 547.953631,263.715284 550.873324,263.980646 C553.821158,264.250705 557.062133,265.168904 556.909699,268.973209 C556.75023,272.972426 553.07306,272.808042 551.042173,273.606476 C547.092967,272.838571 543.312611,271.927416 543.866062,267.519589 L543.866062,267.519589 Z M560.232755,291.716846 C559.963064,296.228 556.269478,296.183381 553.495184,296.319585 C550.202615,295.593949 547.367348,294.534849 548.059163,290.545026 C548.694694,286.867531 551.562793,286.104322 554.56691,286.393167 C557.596824,286.682013 560.441472,288.248353 560.232755,291.716846 L560.232755,291.716846 Z M558.679572,381.434798 C558.609218,379.255541 560.323512,378.21288 562.143336,378.11425 C564.436877,377.992137 566.073781,379.107596 566.437277,381.805835 C565.942453,383.839494 564.671391,385.119337 562.849221,385.229709 C560.534574,385.370609 558.763997,384.032057 558.679572,381.434798 L558.679572,381.434798 Z M572.998963,361.725211 C575.292504,361.60075 576.929408,362.718558 577.292903,365.416796 C576.79808,367.448107 575.527017,368.72795 573.704848,368.838322 C571.3902,368.98157 569.619624,367.643019 569.535199,365.04341 C569.464845,362.864154 571.179138,361.821493 572.998963,361.725211 L572.998963,361.725211 Z M585.669723,376.259064 C586.016803,374.31699 587.930433,373.593703 589.815921,373.657108 C592.146984,373.7393 593.657251,374.988615 594.377207,377.395659 C593.375835,379.73695 591.6334,380.81014 589.386761,380.420316 C587.308972,380.058672 585.17959,378.997224 585.669723,376.259064 L585.669723,376.259064 Z M591.591187,356.457893 C593.882384,356.333431 595.519287,357.451239 595.882783,360.149478 C595.38796,362.183137 594.119242,363.460632 592.294728,363.573352 C589.982425,363.714252 588.209504,362.3757 588.125079,359.778441 C588.054725,357.596836 589.769018,356.556523 591.591187,356.457893 L591.591187,356.457893 Z M596.018801,390.978436 C596.365881,389.036362 598.279511,388.310726 600.164999,388.37648 C602.496062,388.456323 604.006329,389.707986 604.72863,392.115031 C603.724913,394.453974 601.982478,395.529512 599.738184,395.13734 C597.65805,394.775696 595.531013,393.716596 596.018801,390.978436 L596.018801,390.978436 Z M613.422043,381.197616 C613.769123,379.255541 615.682752,378.529906 617.56824,378.595659 C619.899304,378.677851 621.40957,379.927166 622.129527,382.33421 C621.128154,384.675502 619.38572,385.748691 617.139081,385.358867 C615.061292,384.994875 612.93191,383.935776 613.422043,381.197616 L613.422043,381.197616 Z M688.956475,353.226582 C689.458333,350.319342 691.723733,349.718168 694.094664,349.945957 C696.489046,350.173745 698.735685,351.411318 698.571525,354.149479 C698.358118,357.711905 695.440771,357.679028 693.250415,357.784703 C690.649662,357.211709 688.410058,356.375701 688.956475,353.226582 L688.956475,353.226582 Z M690.914662,316.028936 C691.552538,312.349093 694.418292,311.588232 697.424755,311.877078 C700.454668,312.165923 703.299316,313.732263 703.090599,317.200756 C702.820909,321.71191 699.124977,321.667291 696.353028,321.801147 C693.058114,321.077859 690.225192,320.016411 690.914662,316.028936 L690.914662,316.028936 Z M658.24694,355.45985 C655.594594,354.940868 653.308088,354.205839 653.812291,351.580399 C654.276628,349.156916 656.567824,348.691945 658.983313,348.919734 C661.417562,349.147522 663.718139,350.218364 663.596192,352.505643 C663.434378,355.480985 660.470128,355.405838 658.24694,355.45985 L658.24694,355.45985 Z M649.234589,316.820325 C649.684855,313.220326 653.322158,313.013672 656.241851,313.281383 C659.19203,313.549093 662.43066,314.467293 662.278226,318.271597 C662.118757,322.270814 658.441587,322.10643 656.4107,322.904865 C652.463839,322.136959 648.683483,321.225804 649.234589,316.820325 L649.234589,316.820325 Z M342.391594,211.987285 C324.193466,213.022707 305.673291,201.085297 307.856103,182.332122 C309.870538,165.023926 324.918956,154.762433 342.391593,156.579699 C359.85003,158.392758 374.46394,169.112184 372.782201,186.645435 C371.102491,204.163963 360.017999,210.984392 342.391594,211.987285 L342.391594,211.987285 Z M329.205243,197.258778 C333.517836,200.728503 341.796224,203.40234 351.609783,196.390007 C359.267987,190.916944 362.261897,186.111458 357.260912,178.598799 C352.13154,170.894438 339.830189,168.044245 332.21919,174.863616 C322.414639,183.649533 322.852508,192.147644 329.205243,197.258778 L329.205243,197.258778 Z" id="Combined-Shape" fill="url(#radialGradient-1)"></path>
                <path d="M216.615315,207.171325 L216.615315,180.069059 C216.615315,162.529668 225.9764,146.322602 241.17234,137.552907 L445.52054,19.6219659 C460.71648,10.8522705 479.43865,10.8522705 494.63459,19.6219659 L698.98279,137.552907 C714.17873,146.322602 723.539815,162.529668 723.539815,180.069059 L723.539815,276.729112 C717.050114,272.215141 709.811772,269.262565 701.965934,267.945363 L701.965929,180.180813 C701.965929,170.276639 696.679895,161.124804 688.099024,156.172717 L483.944469,38.35353 C475.363599,33.4014428 464.791531,33.4014428 456.21066,38.35353 L252.056105,156.172717 C243.475235,161.124804 238.189201,170.276639 238.189201,180.180813 L238.189201,185.874905 C232.323699,191.119083 226.485925,197.00189 220.693148,203.466502 C219.740001,204.530193 218.788073,205.609635 217.837439,206.704576 C217.61384,206.962118 217.167549,207.108775 216.615315,207.171325 Z M230.949693,450.595964 C233.958164,453.612195 237.383926,456.26077 241.17234,458.447093 L445.52054,576.378034 C460.71648,585.14773 479.43865,585.14773 494.63459,576.378034 L633.908404,496.002029 C628.764187,491.326867 623.749449,486.30558 618.106363,480.220594 L483.944469,557.64647 C475.363599,562.598557 464.791531,562.598557 456.21066,557.64647 L269.007722,449.610193 C268.789279,449.90873 268.569138,450.207545 268.3473,450.506642 C268.307324,450.560645 267.722658,451.365438 267.507172,451.652515 C263.861969,456.508759 259.359754,458.971294 253.410117,455.524488 C249.113205,453.034128 247.743499,448.957519 248.120812,444.355062 C248.194331,443.458275 248.313245,442.673595 248.600378,441.110427 C248.696345,440.592184 248.999034,439.49398 249.413465,438.094834 C244.44614,434.417605 240.882881,429.207397 239.227844,423.337069 C237.735431,432.686335 234.901277,441.910214 230.949693,450.595964 Z M238.189201,388.601753 L238.189201,352.450294 C235.502882,343.712922 232.760651,334.147091 231.714135,334.058688 C229.60151,333.880228 232.474194,359.773426 238.189201,388.601753 Z" id="Combined-Shape" fill="url(#linearGradient-2)"></path>
                <path d="M233.611562,190.101966 L233.611562,187.977074 C233.611562,171.613811 242.344927,156.493531 256.521883,148.311899 L447.167244,38.2889737 C461.3442,30.1073418 478.81093,30.1073418 492.987886,38.2889737 L683.633247,148.311899 C697.810203,156.493531 706.543568,171.613811 706.543568,187.977074 L706.543568,268.916902 C699.125676,267.003502 691.102539,266.633995 682.605379,267.877158 L682.605379,190.017633 C682.605379,180.940367 677.760681,172.552626 669.896234,168.013993 L482.78671,60.0316263 C474.922264,55.4929929 465.232866,55.4929929 457.36842,60.0316263 L318.800539,140.000232 C311.959458,142.357527 305.911077,145.8613 300.737928,150.424305 L287.290113,158.185144 C269.422321,162.016734 251.368476,173.185423 233.611561,190.101953 Z M233.611562,337.884204 L233.611562,362.354538 C234.915791,371.104259 236.670297,381.180249 238.777652,391.530629 C241.2121,403.486242 240.889794,416.036418 238.319428,428.24514 C240.820836,433.325403 244.256929,437.928492 248.476952,441.793405 C248.514255,441.582679 248.555237,441.356173 248.600378,441.110427 C249.057541,438.641651 254.205896,423.011698 253.777536,424.383816 C255.390842,419.216093 256.58714,414.73473 257.408892,410.530372 C257.518499,409.969585 257.620408,409.417561 257.714574,408.874377 C257.605441,407.920896 257.54975,406.955594 257.54975,405.982367 L257.54975,392.849202 C257.266205,392.010426 256.922542,391.242773 256.517919,390.547747 C256.429995,390.378094 253.292449,385.155407 251.750498,382.48087 C248.462368,376.77756 245.383785,370.983997 242.470583,364.817827 C240.053724,359.70223 236.115845,344.92975 233.611562,337.884204 Z M266.182375,453.263246 L447.167244,557.711026 C461.3442,565.892658 478.81093,565.892658 492.987886,557.711026 L621.324827,483.646776 C616.436664,478.514116 611.158111,472.63165 604.935654,465.475265 L482.78671,535.968374 C474.922264,540.507007 465.232866,540.507007 457.36842,535.968374 L279.398388,433.260479 C276.372328,438.919992 272.684082,444.659512 268.3473,450.506642 C268.307324,450.560645 267.722658,451.365438 267.507172,451.652515 C267.077787,452.224555 266.636509,452.763381 266.182375,453.263246 Z" id="Combined-Shape" fill="url(#linearGradient-3)"></path>
                <path d="M269.117008,164.52849 C270.783165,163.188246 272.563674,161.96603 274.449311,160.877815 L449.090504,60.0910193 C462.077342,52.5962135 478.077787,52.5962135 491.064626,60.0910193 L665.705819,160.877815 C678.692657,168.372621 686.69288,182.223593 686.69288,197.213205 L686.69288,267.400024 C679.683322,268.00767 672.323941,269.746558 664.692637,272.657517 L664.692637,199.118844 C664.692637,190.806647 660.25627,183.125861 653.054672,178.969763 L481.71553,80.0886068 C474.513932,75.9325086 465.641198,75.9325086 458.4396,80.0886068 L357.13562,138.551924 C353.950473,137.550128 350.605602,136.869256 347.136284,136.644167 C322.858026,135.068991 304.036717,143.367241 292.498803,159.608206 L297.606611,156.798227 C288.16472,157.298317 278.644067,159.954431 269.117008,164.52849 Z M253.46225,385.402182 L253.46225,398.786795 C253.46225,404.276447 254.535277,409.613378 256.533302,414.541302 C256.862163,413.169408 257.153602,411.836523 257.408892,410.530372 C259.177982,401.479123 258.941462,394.710692 256.517919,390.547747 C256.456634,390.429495 254.913727,387.856287 253.46225,385.402182 Z M277.408475,436.829942 L449.090504,535.908981 C462.077342,543.403786 478.077787,543.403786 491.064626,535.908981 L607.674749,468.612369 C606.033822,466.741437 604.327457,464.779646 602.544054,462.716011 C599.032029,458.652537 595.402815,455.2458 591.627109,452.480559 L481.71553,515.911393 C474.513932,520.067491 465.641198,520.067491 458.4396,515.911393 L287.100458,417.030237 C286.87576,416.900563 286.653755,416.767457 286.434493,416.631008 C284.393175,423.272071 281.376613,429.989096 277.408475,436.829942 Z M275.462493,351.942873 L275.462493,285.329425 C274.594103,286.121906 273.730702,286.942251 272.871873,287.790506 C260.903214,299.614362 258.469255,310.171022 264.339872,325.702677 C267.672783,334.524144 271.392387,343.293072 275.462493,351.942873 Z" id="Combined-Shape" fill="url(#linearGradient-4)"></path>
            </g>
            <g id="Group" transform="translate(684.838112, 645.601597) rotate(-30.000000) translate(-684.838112, -645.601597) translate(562.338112, 622.101597)">
                <g id="Combined-Shape">
                    <use fill="#9F4086" fill-rule="evenodd" xlink:href="#path-5"></use>
                    <use stroke="#4A257A" mask="url(#mask-6)" stroke-width="6" stroke-linecap="round" stroke-linejoin="round" xlink:href="#path-5"></use>
                </g>
                <g id="et:4Z">
                    <use fill="#303030" fill-rule="evenodd" xlink:href="#path-7"></use>
                    <use stroke="#FC4E4E" mask="url(#mask-8)" stroke-width="6" stroke-linecap="round" stroke-linejoin="round" xlink:href="#path-7"></use>
                </g>
                <g id="Combined-Shape">
                    <use fill="#303030" fill-rule="evenodd" xlink:href="#path-9"></use>
                    <use stroke="#FC4E4E" mask="url(#mask-10)" stroke-width="6" stroke-linecap="round" stroke-linejoin="round" xlink:href="#path-9"></use>
                </g>
                <path d="M184.388281,7.859375 L181.468359,16.84375 L199.437109,16.84375 C204.2288,16.84375 204.258747,20.4374641 199.526953,27.625 L194.429296,37.40625 L204.749609,37.40625 C204.749609,37.40625 212,26.5 215.264815,17.8711406 C217.448713,12.0991279 214.464028,7.859375 205.950781,7.859375 L184.388281,7.859375 Z" id="Path" fill="#FFFFFF"></path>
                <polygon id="Path" fill="#FFFFFF" points="235.86875 4.265625 230.478125 4.265625 226.390234 16.84375 231.780859 16.84375"></polygon>
                <polygon id="Path" fill="#FFFFFF" points="224.593359 16.84375 228.68125 4.265625 223.290625 4.265625 219.202734 16.84375"></polygon>
                <g id="Path">
                    <use fill="#303030" fill-rule="evenodd" xlink:href="#path-11"></use>
                    <use stroke="#FC4E4E" mask="url(#mask-12)" stroke-width="6" stroke-linecap="round" stroke-linejoin="round" xlink:href="#path-11"></use>
                </g>
                <polygon id="Path" fill="#FFFFFF" points="34.1289063 4.265625 46.7070313 4.265625 34.8027344 13.25 26.6269531 38.40625 15.8457031 38.40625 20.5175781 24.03125 18.1367188 25.828125 5.55859375 25.828125"></polygon>
                <g id="Path">
                    <use fill="#303030" fill-rule="evenodd" xlink:href="#path-13"></use>
                    <use stroke="#FC4E4E" mask="url(#mask-14)" stroke-width="6" stroke-linecap="round" stroke-linejoin="round" xlink:href="#path-13"></use>
                </g>
                <path d="M54.2328124,7.859375 L62.6781249,7.859375 L64.7445312,4.265625 L75.1664062,4.265625 L73.2796874,7.859375 L79.3890624,7.859375 C85.3786757,7.859375 87.4001398,10.8541367 85.4535155,16.84375 L78.445703,38.40625 L67.664453,38.40625 L73.5042968,20.4375 C74.4027388,18.0416547 73.5941531,16.84375 71.0785155,16.84375 L68.2035155,16.84375 L55.9847655,38.40625 L45.2035155,38.40625 L57.601953,16.84375 L51.3128905,16.84375 L54.2328124,7.859375 Z" id="Path" fill="#FFFFFF"></path>
                <g id="Combined-Shape">
                    <use fill="#303030" fill-rule="evenodd" xlink:href="#path-15"></use>
                    <use stroke="#FC4E4E" mask="url(#mask-16)" stroke-width="6" stroke-linecap="round" stroke-linejoin="round" xlink:href="#path-15"></use>
                </g>
                <path d="M98.2351561,4.265625 L109.016406,4.265625 L107.848437,7.859375 L131.207812,7.859375 L128.28789,16.84375 L124.69414,16.84375 L121.774219,25.828125 C119.048945,34.2135836 112.894709,38.40625 103.311328,38.40625 L87.1394529,38.40625 L90.0593748,29.421875 L106.23125,29.421875 C108.627095,29.421875 110.214319,28.2239703 110.992969,25.828125 L113.91289,16.84375 L104.928515,16.84375 L102.008594,25.828125 L91.2273436,25.828125 L98.2351561,4.265625 Z" id="Path" fill="#FFFFFF"></path>
                <path d="M133.962109,31.21875 L131.626172,38.40625 L151.391797,38.40625 C160.975178,38.40625 166.934754,34.8125359 169.270703,27.625 L171.022656,22.234375 C172.579955,17.4426844 170.962784,15.046875 166.171093,15.046875 L139.217968,15.046875 L136.882031,22.234375 L160.241406,22.234375 C161.439329,22.234375 161.843621,22.8333273 161.454297,24.03125 L160.286328,27.625 C159.507678,30.0208453 157.321502,31.21875 153.727734,31.21875 L133.962109,31.21875 Z M142.182812,11.453125 L172.729687,11.453125 L175.065625,4.265625 L144.51875,4.265625 L142.182812,11.453125 Z" id="Combined-Shape" fill="#FFFFFF"></path>
            </g>
        </g>
    </g>
</svg>
