<svg xmlns="http://www.w3.org/2000/svg" width="369" height="336" viewBox="0 0 369 336">
  <defs>
    <radialGradient id="a" cx="23.908%" cy="91.755%" r="159.696%" fx="23.908%" fy="91.755%">
      <stop stop-color="#292454" offset="0%"/>
      <stop stop-color="#344EAB" offset="18.236%"/>
      <stop stop-color="#EC70D6" offset="46.472%"/>
      <stop stop-color="#FFD17F" offset="66.62%"/>
      <stop stop-color="#B4ED50" offset="100%"/>
    </radialGradient>
    <linearGradient id="b" x1="26.219%" x2="95.047%" y1="-8.683%" y2="131.804%">
      <stop stop-color="#3023AE" offset="0%"/>
      <stop stop-color="#53A0FE" offset="47.525%"/>
      <stop stop-color="#B4ED50" offset="100%"/>
    </linearGradient>
    <linearGradient id="c" x1="9.572%" x2="77.864%" y1="0%" y2="92.285%">
      <stop stop-color="#3023AE" offset="0%"/>
      <stop stop-color="#53A0FE" offset="47.525%"/>
      <stop stop-color="#B4ED50" offset="100%"/>
    </linearGradient>
    <linearGradient id="d" x1="16.328%" x2="56.305%" y1="-9.113%" y2="82.726%">
      <stop stop-color="#3023AE" offset="0%"/>
      <stop stop-color="#53A0FE" offset="47.525%"/>
      <stop stop-color="#B4ED50" offset="100%"/>
    </linearGradient>
  </defs>
  <g fill="none" fill-rule="evenodd">
    <path fill="#FFFFFF" d="M349.086361,106.533392 C347.5704,100.619388 343.738223,95.4631543 338.32031,92.3314157 L242.737714,37.0814157 C235.629908,32.9728614 226.872729,32.9728614 219.764923,37.0814157 L124.182327,92.3314157 C117.074521,96.43997 112.695932,104.032891 112.695932,112.25 L112.695932,126.329493 C112.679129,126.334887 112.662311,126.340373 112.645477,126.345949 C112.248077,126.477606 111.883641,126.641845 111.485645,126.850426 C101.788114,131.318109 93.3661856,136.6244 83.2016914,144.297864 C75.7593961,149.916559 70.8069566,154.754809 66.9692681,160.822263 C61.1159861,170.075586 59.9390899,180.65039 63.2730317,191.612304 C63.3605834,191.900172 65.4873583,195.13436 65.9239446,194.935058 C67.3685498,194.275596 60.2425739,196.908988 56.3362551,197.580139 C41.4848354,200.131785 32.3744838,192.238539 33.7693639,174.735851 C33.7964043,174.397097 33.8039333,174.298629 33.8124139,174.170234 C33.8323164,173.854858 33.8399379,173.715986 33.845633,173.545754 C33.9114453,171.578561 33.4580578,170.030596 31.651283,169.002381 C30.3124857,168.24002 28.8192808,168.243539 27.5379857,168.934078 C26.7792274,169.343002 26.2590647,169.856589 25.6835496,170.587247 C22.5368586,174.716051 21.1502719,179.216677 21.0091532,184.417354 C20.6901229,196.27422 28.7419422,208.083556 40.2852301,212.346351 C41.497347,212.794009 42.7062657,213.192693 43.911796,213.542499 C43.0818578,213.891367 42.3154139,214.488664 41.6699971,215.344638 C40.270477,217.200769 40.257371,219.27238 41.1416255,221.372621 C41.4164614,222.025399 41.7091624,222.56237 42.2387282,223.451902 C42.7244418,224.267773 42.819348,224.43257 42.9562282,224.711925 C43.3189398,225.453401 43.7107019,226.002809 44.3820311,226.821762 C52.2793336,236.426774 62.3756327,240.624326 73.798217,239.076177 C92.655608,236.518705 104.902208,226.686574 112.14464,208.21493 C112.45925,210.400758 112.640819,212.498725 112.695932,214.514398 L112.695932,217.122943 C112.436006,226.364559 109.384912,233.802471 104.249753,240.034324 C101.933075,242.845765 95.6124897,248.520902 95.1922904,249.145404 C95.0869852,249.301955 95.0073776,249.401063 94.5477599,249.953126 C93.6528116,251.028079 93.1976376,251.691381 92.8577861,252.688142 C92.3053196,254.308488 92.5583036,256.00051 93.6456116,257.48936 C95.2624824,259.704568 97.4768171,259.86991 99.8750643,258.97432 C100.13957,258.875545 100.377443,258.777313 100.728981,258.625837 C101.287272,258.385273 101.371348,258.35017 101.530089,258.294298 C109.71991,255.410233 116.774612,248.967021 121.618444,240.947263 C122.42714,241.572969 123.282882,242.148674 124.182327,242.668584 L219.764923,297.918584 C226.872729,302.027139 235.629908,302.027139 242.737714,297.918584 L322.85578,251.60761 L341.228565,240.675513 C345.109319,237.55249 347.858094,233.258272 349.086361,228.466608 L349.086361,106.533392 L349.086361,106.533392 L349.086361,106.533392 Z M278.344397,233.231988 L236.059517,257.674091 C233.084193,259.393929 229.418444,259.393929 226.44312,257.674091 L155.65475,216.755999 C152.679427,215.036161 150.846552,211.857768 150.846552,208.418092 L150.846552,157.096081 C153.128509,155.90552 155.507268,155.082494 158.01306,154.62358 C169.98127,152.43175 178.147854,153.784424 184.906989,160.231451 C186.247327,161.509824 187.673022,162.273513 189.103774,162.512192 C188.488607,164.476879 189.204296,166.483766 191.207446,168.551647 C194.418985,171.865188 197.220923,174.044422 203.650348,178.570798 C204.022134,178.832539 204.314208,179.03827 204.563169,179.21388 C204.563169,179.21388 204.712482,181.353521 204.706688,182.0707 C204.648817,188.549565 204.887103,195.274292 205.750857,202.122768 C206.674942,209.449591 208.183764,215.313638 210.501963,219.322717 C216.868635,230.334131 229.970582,237.845209 242.349444,237.752939 C249.478456,237.699262 256.733975,236.409751 264.913849,233.966802 C269.859137,232.489774 274.293012,232.222449 278.344397,233.231988 L278.344397,233.231988 L278.344397,233.231988 Z M311.656085,159.195183 L311.656085,126.581908 C311.656085,123.142232 309.82321,119.963839 306.847887,118.244001 L236.059517,77.3259092 C233.084193,75.6060708 229.418444,75.6060708 226.44312,77.3259092 L187.812143,99.6559312 C192.399269,102.8659 195.2555,106.62534 195.2555,106.62534 C198.23522,107.428517 201.054383,108.543339 203.768897,110.025296 C204.988375,110.690881 205.791135,111.134953 206.39373,111.492582 L208.806026,112.248888 C241.281879,122.430762 272.191273,138.261648 306.569095,161.227142 L307.23432,161.671534 C308.747083,160.764432 310.191148,159.956259 311.656085,159.195183 L311.656085,159.195183 L311.656085,159.195183 Z M76.4094364,188.41644 L76.3752382,188.323697 C75.5433777,186.067748 75.4139965,185.58681 75.4434071,185.051487 C75.4275484,174.667236 79.6762592,167.13409 86.9112905,161.614636 C89.1149709,159.933495 91.4753887,158.540354 93.9359108,157.375638 C94.8521171,156.941941 95.7362865,156.561436 96.6364764,156.203762 C97.1607525,155.99545 98.5124223,155.485071 98.4033447,155.527298 L97.8671152,155.679364 C98.210732,155.615664 98.5478271,155.519722 98.8779437,155.393961 C98.8815782,155.392576 98.8852115,155.391189 98.8888434,155.389798 C96.8843379,159.174809 95.3732554,162.518595 94.5637652,165.013011 C90.7004954,174.393804 84.1110594,182.55204 76.4094364,188.41644 L76.4094364,188.41644 L76.4094364,188.41644 Z M73.7522675,211.971492 L74.7123192,213.200676 C75.0200935,213.59473 75.3779981,213.987437 75.7929674,214.389694 C78.0124381,216.543848 79.048087,217.473302 80.123587,218.16696 C80.3690871,218.325298 80.6183528,218.466056 80.8694651,218.587917 C70.7875847,224.884399 58.0413645,224.144256 51.6572243,216.619904 C51.096085,215.958231 50.5356573,215.377056 49.9483622,214.885274 C58.0744808,216.156906 66.0290723,215.175887 73.7522675,211.971492 L73.7522675,211.971492 L73.7522675,211.971492 Z M87.5865047,211.796718 C90.2639661,208.84394 92.803379,205.205394 95.1807817,201.031346 C97.6547553,196.687747 99.8172137,192.014505 101.647638,187.339186 C101.957009,186.548983 102.245876,185.786399 102.514036,185.055979 C101.329579,186.656918 100.189896,188.169529 99.0860496,189.603016 C93.1791093,197.273937 88.4630991,202.488428 84.7866378,205.020287 C84.7040799,205.077142 84.6214904,205.133738 84.5388692,205.190074 C84.5388692,205.190074 87.3727181,210.31186 87.5865047,211.796718 L87.5865047,211.796718 Z"/>
    <path fill="url(#a)" d="M345,161.746652 C337.868335,155.692782 328.149535,154.96366 316.973251,160.105669 C305.286142,165.48256 295.303491,173.980802 284.540995,181.053554 C283.485352,181.746837 283.132414,182.393831 284.040119,183.442698 C290.567359,187.15634 298.130166,190.679565 304.658462,194.393207 C311.909542,198.517138 318.125055,202.832536 325.374021,206.961727 C325.346547,206.98908 325.159511,206.928062 324.836161,206.792351 C324.831934,206.790247 324.156702,206.416779 324.152475,206.414675 C320.960183,205.117531 312.468537,200.644328 303.728566,195.895496 C296.622254,192.034571 289.153494,187.882236 285.83651,185.97597 C285.160222,185.586721 281.348703,182.99138 277.536127,185.97071 C264.271364,196.33419 251.49691,188.663889 247.521602,171.888328 C246.688922,168.374571 241.253254,150.763704 240.892919,149.505484 C235.860911,131.958791 208.312685,134.599006 207.84668,134.95459 C207.379618,135.310174 200.919277,157.063965 195.991882,160.324185 C191.830595,163.078381 192.165569,164.531225 194.209228,166.638427 C198.421237,170.979075 202.706928,174.059704 207.528653,177.482987 C207.528653,177.482987 246.366628,199.801658 273.334685,210.527034 C301.254441,221.630518 327.615054,225.338782 344.630951,226.103563 C344.870972,225.048226 345,224.001625 345,222.995119 L345,161.746652 L345,161.746652 Z M343.525324,229.428117 C337.39545,229.296207 325.739155,227.50201 321.248133,226.714513 C299.061667,223.73308 262.494481,211.167716 207.929868,181.220825 C207.962422,181.68056 207.221018,207.28049 213.322375,217.819658 C219.232605,228.029542 231.425868,234.836132 242.588936,234.753022 C250.002977,234.697265 257.238493,233.211808 264.344841,231.091982 C275.552015,227.748652 285.028546,229.999982 293.088428,239.329323 C297.685404,244.650871 302.362465,249.934867 307.567757,254.595525 L336.335847,237.99855 C339.329742,236.271303 341.968965,232.99249 343.525324,229.428117 L343.525324,229.428117 Z M68.1091309,193.448978 C70.1516114,192.502685 71.93042,191.847412 73.8154298,189.939781 C73.0015655,187.732637 72.3796649,186.129355 72.4479245,184.886916 C72.4006678,161.192199 94.0375289,154.000465 97.32029,152.729621 C101.928337,151.875379 106.392514,137.966581 114.771641,131.842754 C114.957517,131.553448 115.142343,131.264142 115.328219,130.974835 C115.369175,127.771425 113.038898,129.537772 112.291193,129.877575 C102.469163,134.347621 93.8625322,140.071783 85.0811988,146.693216 C79.2161251,151.115921 73.6576944,155.953124 69.5579186,162.427274 C64.1412578,170.980222 63.0522549,180.253806 66.1123847,189.939783 L68.1091309,193.448978 L68.1091309,193.448978 Z M83.0897688,209.266827 C82.8303824,208.828134 82.5909487,208.41048 82.3410136,208.044376 C80.670229,209.352041 78.9742408,210.600793 77.0766243,211.354041 C77.2919045,211.629671 77.5565417,211.921082 77.8810372,212.235637 C81.1501464,215.408538 82.9694572,217.049051 83.7570678,215.558334 C84.6318407,215.20801 85.5271611,213.393914 83.0897688,209.266827 L83.0897688,209.266827 Z M107.613381,194.06386 C106.559033,187.75593 106.72937,181.852584 106.72937,181.852584 C106.72937,181.852584 100.443596,203.410623 88.920328,215.797143 C76.9591481,228.653918 57.9493782,228.672854 49.3696732,218.560808 C48.1063457,217.071143 45.8023221,214.881883 44.0884814,217.152149 C42.5930714,219.133109 44.7101687,221.423363 45.6752543,223.390646 C45.9776968,224.008184 46.4177086,224.54156 46.8440684,225.059155 C53.9808708,233.728877 63.0677971,237.509849 73.4579563,236.103294 C91.9027469,233.604739 103.50312,223.900029 110.281822,204.923636 L107.613381,194.06386 L107.613381,194.06386 Z M207.456088,122.615668 C208.591478,115.891136 208.164783,115.720709 202.549092,112.659321 C199.94456,111.23909 197.32313,110.233356 194.681632,109.522188 C191.307147,103.455171 184.508538,99.0229977 176.153125,98.2003156 C167.012972,97.2997838 158.829716,101.038674 154.426515,107.239298 C127.464438,108.667946 101.015663,154.850709 97.417269,165.939032 C81.5323723,204.563009 27.4244431,216.723345 30.7936466,174.49724 C30.8073769,174.322605 30.8221634,174.147969 30.8337813,173.972281 C30.8897587,173.084373 30.9658034,172.056547 30.1810642,171.610489 C29.1027078,170.99716 28.3612718,172.026038 27.7867117,172.780339 C25.1959104,176.178373 24.1249473,180.183425 24.0077117,184.498824 C23.7278249,194.888605 30.8242757,205.650801 41.3459074,209.531714 C55.9591674,214.922281 69.8721822,212.735125 83.0427049,203.32583 C93.303461,195.995333 113.612682,162.450524 115.969012,160.64946 C112.915605,166.430327 107.838564,179.84783 112.934616,197.4082 C123.746696,234.662443 100.219306,247.18257 97.7679196,250.821518 C96.7972933,252.26279 94.7092321,253.744038 96.1530255,255.718686 C97.291584,257.276732 99.1758031,255.975379 100.630158,255.464096 C116.906896,249.738986 128.691715,228.212489 124.984535,209.998813 C115.981686,165.762292 130.421733,153.10961 132.067256,149.775749 C132.065144,149.01198 133.27341,151.294871 132.110559,153.080154 C130.058408,156.857969 127.885853,160.575818 127.005001,164.936454 C121.937466,182.386362 137.459038,205.508778 138.532113,207.580212 C142.481158,214.338408 135.938143,228.562813 135.272752,232.157576 C135.065741,233.27798 134.765787,234.768697 135.981447,235.473553 C137.297443,236.236269 138.108586,234.908616 138.75391,234.036489 C147.697614,221.97294 150.609493,210.637391 144.277714,198.310836 C141.402801,192.715125 138.805663,186.904801 136.564456,180.970339 C133.470915,172.782443 134.97491,166.829044 141.08278,160.792535 C145.837687,156.0942 151.228413,152.844501 157.63518,151.672547 C168.315238,149.71894 178.631972,149.925136 187.170104,158.059379 C190.997688,161.705691 193.531455,158.169842 195.90046,154.424639 C202.026284,144.739714 205.654251,131.231738 207.456088,122.615668 L207.456088,122.615668 Z M250.636321,175.069751 C253.712203,185.714121 261.123094,187.930734 271.216061,185.597347 C276.342881,184.412769 280.927825,180.585509 283.008168,179.215775 C290.654291,174.785705 297.384687,168.681867 305.24189,163.72263 C274.471519,143.191347 246.124796,127.866968 211.223144,116.9375 C212.052246,123.032227 210.143555,129.064697 208.329102,133.023926 C210.697184,132.211764 240.493996,126.352665 245.208109,153.181358 C246.105985,158.293139 249.885465,172.470202 250.636321,175.069751 L250.636321,175.069751 Z M262.934493,218.237311 C261.660664,218.149993 260.314375,217.577692 260.273419,215.916548 C260.220912,213.804086 261.926352,213.779889 263.024806,213.341195 C264.709242,213.726236 266.292865,214.2796 266.18785,216.098548 C266.078635,217.999554 264.371095,218.336201 262.934493,218.237311 L262.934493,218.237311 Z M248.252381,224.202282 C246.793726,223.805669 245.347673,223.321739 245.518847,221.301854 C245.665868,219.571276 246.951248,219.111542 248.304888,219.187288 C249.849655,219.274606 251.219048,219.986825 251.058375,221.922548 C250.922906,223.544768 249.548263,223.975045 248.252381,224.202282 L248.252381,224.202282 Z M234.22136,212.63634 C232.599933,212.104016 230.999508,211.576953 231.132877,209.675947 C231.29775,207.329935 233.138658,207.267866 234.762186,207.402525 C236.258647,207.526664 237.812865,208.113692 237.657443,210.064143 C237.476818,212.333357 235.5708,212.312317 234.22136,212.63634 L234.22136,212.63634 Z M233.458953,225.704571 C232.201927,225.741392 230.614104,225.847646 230.292759,224.182294 C229.968263,222.498005 231.447921,222.333889 232.530623,222.29286 C233.823355,222.243415 235.107685,222.45908 235.56975,224.10234 C235.43008,225.580432 234.391484,225.677218 233.458953,225.704571 L233.458953,225.704571 Z M255.973171,162.15196 C256.128592,161.281936 256.985513,160.956861 257.829831,160.986318 C258.873678,161.022087 259.549973,161.582815 259.873418,162.661139 C259.423955,163.708954 258.643696,164.19078 257.637654,164.016145 C256.707224,163.853081 255.75474,163.378618 255.973171,162.15196 L255.973171,162.15196 Z M264.542374,153.845185 C264.744002,152.233486 266.372781,152.140908 267.680215,152.259786 C269.00025,152.380769 270.451554,152.79211 270.383294,154.496387 C270.311884,156.287983 268.665253,156.214341 267.755825,156.572029 C265.987377,156.228017 264.294539,155.819832 264.542374,153.845185 L264.542374,153.845185 Z M271.871353,164.685231 C271.750586,166.706168 270.096604,166.686179 268.85428,166.747197 C267.379873,166.422121 266.110244,165.947659 266.420038,164.160272 C266.704628,162.512803 267.988958,162.170896 269.334197,162.300295 C270.690988,162.429694 271.964817,163.131393 271.871353,164.685231 L271.871353,164.685231 Z M271.175841,204.877669 C271.144336,203.901392 271.911994,203.434294 272.726909,203.390109 C273.753953,203.335403 274.486956,203.835114 274.649729,205.043889 C274.428147,205.954941 273.858968,206.528294 273.043003,206.577739 C272.006507,206.64086 271.213646,206.041207 271.175841,204.877669 L271.175841,204.877669 Z M277.588041,196.048039 C278.615086,195.992282 279.348088,196.493045 279.510861,197.70182 C279.28928,198.61182 278.7201,199.185172 277.904136,199.234617 C276.86764,199.298791 276.074779,198.699138 276.036973,197.534548 C276.005469,196.558271 276.773127,196.091172 277.588041,196.048039 L277.588041,196.048039 Z M283.261988,202.55901 C283.41741,201.688987 284.27433,201.364964 285.118649,201.393369 C286.162496,201.43019 286.838791,201.989866 287.161186,203.06819 C286.712773,204.117057 285.932513,204.597831 284.926472,204.423195 C283.996041,204.261184 283.042507,203.785669 283.261988,202.55901 L283.261988,202.55901 Z M285.913611,193.688351 C286.939605,193.632594 287.672608,194.133357 287.835381,195.342132 C287.613799,196.253184 287.04567,196.825484 286.228655,196.875982 C285.193209,196.939103 284.399298,196.33945 284.361493,195.175912 C284.329988,194.198583 285.097646,193.732536 285.913611,193.688351 L285.913611,193.688351 Z M287.896289,209.153091 C288.051711,208.283068 288.908631,207.957993 289.75295,207.98745 C290.796796,208.023218 291.473091,208.583947 291.796537,209.662271 C291.347074,210.710086 290.566814,211.191912 289.561823,211.016224 C288.630342,210.854213 287.677858,210.37975 287.896289,209.153091 L287.896289,209.153091 Z M295.689434,204.771415 C295.844855,203.901392 296.701776,203.576317 297.546094,203.605773 C298.589941,203.642594 299.266236,204.202271 299.588631,205.280594 C299.140218,206.329461 298.359959,206.810236 297.353917,206.6356 C296.423487,206.472536 295.469953,205.998074 295.689434,204.771415 L295.689434,204.771415 Z M329.513634,192.240768 C329.738366,190.938363 330.752808,190.669045 331.814507,190.771091 C332.886708,190.873138 333.892749,191.427554 333.819239,192.654213 C333.723676,194.250132 332.417292,194.235403 331.436454,194.282745 C330.271841,194.026051 329.26895,193.651531 329.513634,192.240768 L329.513634,192.240768 Z M330.390507,175.576721 C330.676147,173.928201 331.959428,173.587346 333.305717,173.716745 C334.662507,173.846143 335.936336,174.547843 335.842873,176.101681 C335.722106,178.122617 334.067074,178.102629 332.825799,178.162594 C331.350342,177.838571 330.081764,177.363057 330.390507,175.576721 L330.390507,175.576721 Z M315.761953,193.241242 C314.574236,193.008745 313.550342,192.679461 313.776124,191.503299 C313.984053,190.417612 315.010047,190.209311 316.091699,190.311357 C317.181752,190.413403 318.211947,190.893126 318.157339,191.917797 C318.084879,193.25071 316.757493,193.217045 315.761953,193.241242 L315.761953,193.241242 Z M311.726236,175.931253 C311.927864,174.318502 313.556643,174.225924 314.864077,174.345854 C316.185162,174.465785 317.635416,174.877126 317.567156,176.581403 C317.495746,178.372999 315.849115,178.299357 314.939687,178.657045 C313.172289,178.313034 311.479451,177.904849 311.726236,175.931253 L311.726236,175.931253 Z M174.322422,128.967458 C166.173328,129.431313 157.880023,124.083514 158.857483,115.682343 C159.759543,107.928504 166.498201,103.331493 174.322421,104.145603 C182.140282,104.95783 188.684368,109.759989 187.931288,117.61465 C187.179116,125.462715 182.215498,128.518176 174.322422,128.967458 L174.322422,128.967458 Z M168.417594,122.369285 C170.348767,123.923675 174.055816,125.121518 178.450312,121.980087 C181.879644,119.528228 183.220312,117.375435 180.980879,114.009865 C178.683954,110.558414 173.175428,109.281566 169.767235,112.336553 C165.376772,116.272526 165.572849,120.079565 168.417594,122.369285 L168.417594,122.369285 Z"/>
    <path fill="url(#b)" d="M118,126.809973 L118,114.668521 C118,106.81111 122.191879,99.5505618 128.996597,95.621856 L220.503403,42.7903773 C227.308121,38.8616715 235.691879,38.8616715 242.496597,42.7903773 L334.003403,95.621856 C340.808121,99.5505618 345,106.81111 345,114.668521 L345,157.970928 C342.093922,155.948729 338.852604,154.626015 335.33925,154.035926 L335.339247,114.718586 C335.339247,110.281649 332.97217,106.181749 329.129669,103.963281 L237.709578,51.1818666 C233.867078,48.963398 229.132922,48.963398 225.290422,51.1818666 L133.870331,103.963281 C130.02783,106.181749 127.660753,110.281649 127.660753,114.718586 L127.660753,117.269463 C125.03419,119.618784 122.420044,122.254202 119.826047,125.150262 C119.39923,125.626781 118.972958,126.110357 118.547265,126.600875 C118.447138,126.716251 118.247289,126.781951 118,126.809973 Z M124.418912,235.860944 C125.766101,237.212174 127.300152,238.398701 128.996597,239.378144 L220.503403,292.209623 C227.308121,296.138329 235.691879,296.138329 242.496597,292.209623 L304.863194,256.202251 C302.559622,254.107841 300.31403,251.858372 297.787065,249.13238 L237.709578,283.818133 C233.867078,286.036602 229.132922,286.036602 225.290422,283.818133 L141.461238,235.419332 C141.36342,235.553072 141.264841,235.686937 141.165502,235.820928 C141.147601,235.845121 140.885789,236.205658 140.789294,236.334264 C139.156978,238.509797 137.140893,239.612979 134.476655,238.068856 C132.552504,236.953208 131.939152,235.126942 132.108112,233.065103 C132.141034,232.663355 132.194283,232.311829 132.322861,231.61155 C132.365835,231.379384 132.501379,230.887404 132.68696,230.260605 C130.4626,228.613256 128.866978,226.279153 128.125855,223.649325 C127.457555,227.83767 126.188425,231.969844 124.418912,235.860944 Z M127.660753,208.088369 L127.660753,191.893001 C126.457823,187.978776 125.229856,183.693412 124.761228,183.653808 C123.815198,183.573861 125.101581,195.173666 127.660753,208.088369 Z"/>
    <path fill="url(#c)" d="M125.610893,119.163129 L125.610893,118.211206 C125.610893,110.880684 129.52168,104.107001 135.870099,100.44174 L221.240794,51.1529463 C227.589213,47.487685 235.410787,47.487685 241.759206,51.1529463 L327.129901,100.44174 C333.47832,104.107001 337.389107,110.880684 337.389107,118.211206 L337.389107,154.471162 C334.067387,153.613985 330.474639,153.448451 326.669624,154.005371 L326.669624,119.125349 C326.669624,115.058856 324.500175,111.30126 320.978488,109.268014 L237.191135,60.8933628 C233.669449,58.8601159 229.330551,58.8601159 225.808865,60.8933628 L163.758384,96.7182245 C160.694959,97.7742613 157.986503,99.3439044 155.669975,101.38807 L149.648064,104.864821 C141.646895,106.581322 133.562411,111.584745 125.610892,119.163123 Z M125.610893,185.367588 L125.610893,196.329969 C126.194925,200.249727 126.98059,204.763635 127.92426,209.400466 C129.014402,214.756421 128.870074,220.378731 127.719068,225.848074 C128.839195,228.123964 130.377872,230.186086 132.267591,231.917515 C132.284295,231.823113 132.302647,231.721641 132.322861,231.61155 C132.527578,230.505572 134.833004,223.503563 134.641185,224.118253 C135.363621,221.803183 135.899321,219.795592 136.2673,217.912096 C136.316382,217.660871 136.362017,217.413572 136.404184,217.170233 C136.355315,216.743086 136.330376,216.310644 136.330376,215.874651 L136.330376,209.991169 C136.203405,209.615409 136.049514,209.271511 135.868324,208.960148 C135.828952,208.884146 134.423963,206.544452 133.73348,205.346296 C132.261061,202.791289 130.882476,200.195851 129.577949,197.43349 C128.495683,195.141771 126.732307,188.523898 125.610893,185.367588 Z M140.196052,237.05585 L221.240794,283.847054 C227.589213,287.512315 235.410787,287.512315 241.759206,283.847054 L299.228288,250.667264 C297.039376,248.367901 294.675649,245.732635 291.889242,242.526671 L237.191135,274.106637 C233.669449,276.139884 229.330551,276.139884 225.808865,274.106637 L146.114162,228.094879 C144.759097,230.630265 143.107506,233.201493 141.165502,235.820928 C141.147601,235.845121 140.885789,236.205658 140.789294,236.334264 C140.597016,236.59053 140.399413,236.831917 140.196052,237.05585 Z"/>
    <path fill="url(#d)" d="M141.510176,107.706555 C142.256279,107.106144 143.053588,106.558608 143.897973,106.071102 L222.102027,60.9199701 C227.917513,57.5623977 235.082487,57.5623977 240.897973,60.9199701 L319.102027,106.071102 C324.917513,109.428674 328.5,115.633724 328.5,122.348868 L328.5,153.791622 C325.361131,154.063839 322.065612,154.842837 318.648326,156.146908 L318.648326,123.202569 C318.648326,119.478817 316.661727,116.037928 313.436863,114.176052 L236.711462,69.8786208 C233.486598,68.0167446 229.513402,68.0167446 226.288538,69.8786208 L180.924774,96.0694019 C179.49847,95.6206109 178.000642,95.3155897 176.447086,95.2147526 C165.57532,94.509095 157.147167,98.2265996 151.980507,105.502334 L154.267776,104.243501 C150.039712,104.467535 145.776378,105.657438 141.510176,107.706555 Z M134.5,206.655004 L134.5,212.651132 C134.5,215.110422 134.9805,217.501295 135.875212,219.708939 C136.022476,219.094349 136.152982,218.497234 136.2673,217.912096 C137.059496,213.857258 136.953582,210.825092 135.868324,208.960148 C135.840881,208.907173 135.149969,207.75441 134.5,206.655004 Z M145.223082,229.693951 L222.102027,274.08003 C227.917513,277.437602 235.082487,277.437602 240.897973,274.08003 L293.115804,243.932051 C292.381,243.093899 291.616892,242.215043 290.818287,241.290562 C289.245608,239.47018 287.620451,237.944008 285.929696,236.705217 L236.711462,265.121379 C233.486598,266.983255 229.513402,266.983255 226.288538,265.121379 L149.563137,220.823948 C149.462518,220.765856 149.363104,220.706226 149.264919,220.645099 C148.35082,223.620206 147.000008,226.629343 145.223082,229.693951 Z M144.351674,191.665683 L144.351674,161.823753 C143.962811,162.178773 143.576181,162.546277 143.191599,162.926284 C137.832052,168.223212 136.742129,172.952455 139.370982,179.910427 C140.863455,183.862326 142.529087,187.790688 144.351674,191.665683 Z"/>
  </g>
</svg>
